<?xml version="1.0" encoding="utf-8"?>
<!-- Generator: Adobe Illustrator 24.2.0, SVG Export Plug-In . SVG Version: 6.00 Build 0)  -->
<svg version="1.2" baseProfile="tiny" id="Layer_1" xmlns="http://www.w3.org/2000/svg" xmlns:xlink="http://www.w3.org/1999/xlink"
	 x="0px" y="0px" viewBox="0 0 400 150" overflow="visible" xml:space="preserve">
<g>
	<polygon fill="#A17800" points="306.9,42 298.2,50.6 306.9,58.8 315.6,50.6 	"/>
	<path fill="#A17800" d="M288.6,108c-4.4,0-7.5,0.9-10,2l6.2,8.6c2-0.8,5-1.4,7.4-1.4c8.7,0,14.8,5.3,22.6,13.1l6,5.9l4.8-2.9l-12.4-12.2
		C303.7,111.5,297.5,108,288.6,108z"/>
	<path fill="#A17800" d="M397.4,12.4l-3.5-5.1h-80.2h-6.3H231h-6.2h-43.3h-6.2h-73.5h-6.2H0.1v1.4l2.6,3l3.6,5.1h70.9v44.6
		c-4.4,6.9-12.5,15.2-25.3,15.2c-12.5,0-18.7-7.5-18.7-15.4c0-8.4,6.2-14.3,14.8-16c1.7,0.2,9.4,0.5,20.5,0.5v-1.2l-2.6-3.2
		l-3.5-4.8H5.1v1.4l2.7,3l3.3,4.8h7.1c7.5,0,11.5-0.5,11.5-0.5c-3.2,2.3-6.3,6.3-6.3,12.5c0,6.2,3.3,12.2,9.2,17.6
		c5.9,5.7,13.6,10,22,10c10.9,0,18.9-5,23.5-11c-0.2,15.4-0.9,25.8-0.9,25.8l5,3.2l3.8,2.9h1.8V16.8h14.2h6.3h48.6v24.3H135
		c-15.2,0-24.7,9-24.7,22.2c0,15.2,11.8,32,19,41.3l6.2-3C126.7,90.5,120,78.5,120,68c0-10.3,6.6-17,19.3-17h17.9
		c0,35.3-0.5,49.2-0.5,49.2l5.1,3.2l2.8,2.2c-0.9-0.1-1.8-0.2-2.8-0.2c-6.3,0-11.9,2.7-15.4,8.7l8.6,6.9c2.3-5.6,7.4-8.3,11.3-8.3
		c4.2,0,7.8,3.3,7.8,8.1c0,6.9-6,13.7-17.5,13.7c-14.9,0-27-10.9-34.7-20.2l-4.8,5.1c10.4,11,25.8,23.2,43.6,23.2
		c13.4,0,21-8.9,21-18.1c0-8.5-6.3-16.1-14.5-18.5V16.8h14.2h6.3H206v31.8c0,3.2-2.4,4.8-5.9,4.8c-2.7,0-5.4-0.6-7.8-1.7l-4.8,5.1
		c1.5,4.2,5.6,12.1,17.5,27.8l17.2,22.2l7.4-4.1c-17.3-17.8-27.1-32-27.1-34.7c0-1.2,0.9-1.7,1.8-2.1c9-6.2,12.2-10,12.2-18.9V16.8
		H231h6.3h45.7V32c-1.5-0.2-12.2-1.4-22.3-1.4c-11.5,0-18.1,6-18.1,14.6c0,12.1,10.6,24.9,21.3,26.8c0,0,15.5-5.7,22.5-5.7
		c3.9,0,6.5,3,6.5,7.4c0,8.1-6.5,16.7-22.5,16.7c-12.8,0-23.2-7.1-28.8-13l-4.5,5c7.5,8,20.1,17.6,37.1,17.6
		c15.8,0,26.4-9,26.4-21.3c0-4.8-1.7-10.1-5.1-14.8c-3.6-5.3-7.2-7.2-13-7.2c-5,0-19.3,4.7-21.9,5.3c-5.3,0-10-5-10-11.3
		c0-6.2,4.5-10.3,13.6-10.3h22.9c4.8,0,6.2-1.5,6.2-4.1V16.8h20.2h6.3h9.7v8.3c0,9,0.3,14.5,0.5,19.9c-5.3,2.9-7.7,3.3-7.7,6.2
		c0,4.7,6.8,14,11.3,18.4h6.2V16.8h29.4v83.4l5,3.2l3.6,2.9h1.8V16.8h20.5v-1.4L397.4,12.4z"/>
</g>
</svg>
